# xmcd
#
# Track frame offsets:
#	150
#	12167
#	24287
#	38915
#	53310
#	64797
#	77537
#	93050
#	106027
#	117022
#	133180
#	145132
#	159042
#	168815
#	181790
#	192792
#	205492
#	218770
#	235127
#	246187
#
# Disc length: 3436
#
# Revision: 1
# Processed by: cddbd v1.5.1PL0 Copyright (c) Steve Scherf et al.
# Submitted via: ExactAudioCopy v0.95a3
# Normalized: r0:TDELIM( - )
#
DISCID=ec0d6a14
DTITLE=Various Artist - Blues Gallery
DYEAR=1994
DGENRE=blues
TTITLE0=John Lee Hooker - I'm in the mood
TTITLE1=Howlin' Wolf - Spoonful
TTITLE2=Muddy Waters - Baby please don't go
TTITLE3=John Mayall - John Lee Boogie
TTITLE4=Little Walter - As long as I have you
TTITLE5=Sonny Boy Williamson - Keep it to yourself
TTITLE6=Elmore James - I believe
TTITLE7=Big Joe Williams - Don't want no gib fat woman
TTITLE8=Muddy Waters - I feel so good
TTITLE9=B.B.King - It's my own fault baby
TTITLE10=Memphis Slim - Really got the blues
TTITLE11=Little Walter - Blues with a feeling
TTITLE12=John Lee Hooker - Dusty road
TTITLE13=Sonny Boy Williamson - Work with me
TTITLE14=Big Joe Williams - Sinking blues
TTITLE15=Elmore James - The sky is crying
TTITLE16=Howlin'Wolf - Everybody's in the mood
TTITLE17=B.B.King - Outside help (short version)
TTITLE18=Canned Heat - Can't hold on
TTITLE19=John Mayall - Lost and gone
EXTD=
EXTT0=
EXTT1=
EXTT2=
EXTT3=
EXTT4=
EXTT5=
EXTT6=
EXTT7=
EXTT8=
EXTT9=
EXTT10=
EXTT11=
EXTT12=
EXTT13=
EXTT14=
EXTT15=
EXTT16=
EXTT17=
EXTT18=
EXTT19=
PLAYORDER=
